<svg xmlns="http://www.w3.org/2000/svg" viewBox="0 0 300 600" width="300" height="600">
  <style>
    .phone-frame {
      fill: #333333;
      stroke: #555555;
      stroke-width: 2;
    }
    .screen {
      fill: #FFFFFF;
    }
    .app-header {
      fill: #0065BD;
    }
    .lesson-card {
      fill: #FFFFFF;
      stroke: #EEEEEE;
      stroke-width: 1;
    }
    .progress-bar {
      fill: #00A650;
    }
    .progress-bg {
      fill: #EEEEEE;
    }
    .flag-blue {
      fill: #0065BD;
    }
    .flag-yellow {
      fill: #FFD200;
    }
    .flag-green {
      fill: #00A650;
    }
    .text {
      fill: #333333;
      font-family: sans-serif;
    }
    .text-white {
      fill: #FFFFFF;
      font-family: sans-serif;
    }
    .icon {
      fill: #0065BD;
    }
  </style>
  <g>
    <!-- Phone Frame -->
    <rect class="phone-frame" x="10" y="10" width="280" height="580" rx="30" />
    <rect class="screen" x="20" y="50" width="260" height="500" rx="5" />
    
    <!-- App Header -->
    <rect class="app-header" x="20" y="50" width="260" height="60" />
    <text x="40" y="85" class="text-white" font-size="18" font-weight="bold">Nubian</text>
    
    <!-- Rwanda Flag -->
    <rect class="flag-blue" x="220" y="65" width="20" height="10" />
    <rect class="flag-yellow" x="220" y="75" width="20" height="10" />
    <rect class="flag-green" x="220" y="85" width="20" height="10" />
    
    <!-- Streak Counter -->
    <text x="255" y="85" class="text-white" font-size="16">🔥 7</text>
    
    <!-- Lesson Cards -->
    <rect class="lesson-card" x="30" y="130" width="240" height="80" rx="10" />
    <text x="50" y="160" class="text" font-size="16" font-weight="bold">Reading Mastery</text>
    <rect class="progress-bg" x="50" y="175" width="200" height="10" rx="5" />
    <rect class="progress-bar" x="50" y="175" width="150" height="10" rx="5" />
    <text x="50" y="195" class="text" font-size="12">75% Complete</text>
    
    <rect class="lesson-card" x="30" y="220" width="240" height="80" rx="10" />
    <text x="50" y="250" class="text" font-size="16" font-weight="bold">Listening Skills</text>
    <rect class="progress-bg" x="50" y="265" width="200" height="10" rx="5" />
    <rect class="progress-bar" x="50" y="265" width="120" height="10" rx="5" />
    <text x="50" y="285" class="text" font-size="12">60% Complete</text>
    
    <rect class="lesson-card" x="30" y="310" width="240" height="80" rx="10" />
    <text x="50" y="340" class="text" font-size="16" font-weight="bold">Speaking Practice</text>
    <rect class="progress-bg" x="50" y="355" width="200" height="10" rx="5" />
    <rect class="progress-bar" x="50" y="355" width="90" height="10" rx="5" />
    <text x="50" y="375" class="text" font-size="12">45% Complete</text>
    
    <rect class="lesson-card" x="30" y="400" width="240" height="80" rx="10" />
    <text x="50" y="430" class="text" font-size="16" font-weight="bold">Real Conversations</text>
    <rect class="progress-bg" x="50" y="445" width="200" height="10" rx="5" />
    <rect class="progress-bar" x="50" y="445" width="60" height="10" rx="5" />
    <text x="50" y="465" class="text" font-size="12">30% Complete</text>
    
    <!-- Bottom Navigation -->
    <rect class="app-header" x="20" y="510" width="260" height="40" />
    <circle class="icon" cx="70" cy="530" r="10" />
    <circle class="icon" cx="150" cy="530" r="10" />
    <circle class="icon" cx="230" cy="530" r="10" />
  </g>
</svg>